<?xml version="1.0" standalone="no"?>
<!DOCTYPE svg PUBLIC "-//W3C//DTD SVG 20010904//EN"
 "http://www.w3.org/TR/2001/REC-SVG-20010904/DTD/svg10.dtd">
<svg version="1.0" xmlns="http://www.w3.org/2000/svg"
 width="700.000000pt" height="700.000000pt" viewBox="0 0 700.000000 700.000000"
 preserveAspectRatio="xMidYMid meet">
<metadata>
Created by potrace 1.11, written by Peter Selinger 2001-2013
</metadata>
<g transform="translate(0.000000,700.000000) scale(0.100000,-0.100000)"
fill="#000000" stroke="none">
<path d="M2495 6129 c-221 -45 -505 -179 -555 -261 -45 -75 17 -170 107 -162
17 1 55 18 85 36 47 31 115 65 218 111 81 36 268 75 340 71 29 -2 115 -13 145
-19 55 -10 174 -75 226 -123 l52 -48 -86 -57 c-154 -103 -268 -258 -299 -408
-9 -43 -16 -59 -29 -59 -9 0 -28 -9 -42 -20 -14 -11 -28 -20 -32 -20 -24 0
-323 -216 -539 -390 -66 -52 -133 -106 -150 -120 -75 -59 -463 -390 -512 -435
-6 -5 -42 -37 -79 -70 -38 -33 -79 -69 -90 -80 -12 -11 -39 -35 -61 -54 -21
-19 -79 -71 -128 -115 -49 -45 -100 -91 -114 -103 -13 -13 -63 -58 -110 -100
-47 -43 -103 -94 -125 -113 -131 -115 -311 -305 -379 -403 -149 -211 -270
-496 -302 -713 -4 -22 -8 -51 -11 -64 -12 -63 -19 -154 -20 -257 0 -109 1
-112 28 -137 15 -14 46 -31 70 -37 51 -15 226 -20 288 -9 24 4 64 11 89 14
241 32 709 179 1020 318 144 65 182 83 253 119 147 75 260 139 269 153 12 18
15 3 22 -99 23 -348 157 -728 354 -1004 110 -156 304 -340 447 -428 118 -72
323 -153 426 -168 24 -4 63 -10 87 -15 46 -8 267 -5 317 4 17 3 46 9 65 13 19
3 41 7 49 9 7 1 50 15 95 29 446 148 813 551 985 1084 50 153 90 374 95 520 2
51 16 61 48 32 12 -12 26 -21 30 -21 5 0 26 -11 48 -25 192 -121 679 -325
1005 -420 174 -51 257 -72 365 -91 14 -3 50 -9 80 -15 85 -16 263 -21 316 -9
77 17 102 30 125 66 19 32 21 44 15 162 -4 70 -8 138 -11 152 -2 14 -9 57 -15
95 -42 268 -173 572 -340 789 -78 101 -187 212 -331 340 -44 39 -213 193 -253
231 -12 11 -66 60 -121 110 -55 49 -105 94 -111 100 -6 5 -39 35 -74 65 -35
30 -70 62 -79 70 -9 9 -50 45 -91 80 -41 36 -80 70 -86 75 -6 6 -35 30 -64 55
-29 25 -58 50 -64 55 -25 25 -384 323 -421 350 -22 16 -42 33 -45 36 -3 3 -70
55 -150 116 -174 131 -327 236 -395 270 -27 14 -51 27 -53 28 -2 2 -10 30 -18
64 -36 158 -147 302 -311 408 l-72 46 35 34 c102 95 250 156 384 157 163 1
374 -67 562 -181 32 -19 70 -36 85 -37 87 -9 146 73 113 158 -12 32 -121 104
-228 152 -43 19 -84 39 -94 44 -9 5 -56 21 -105 35 -397 117 -716 33 -947
-248 -31 -38 -41 -45 -64 -40 -40 8 -223 8 -254 0 -23 -6 -32 -2 -50 20 -87
106 -203 202 -298 246 -156 73 -351 93 -535 56z"/>
</g>
</svg>
